<?xml version="1.0" standalone="no"?>
<!DOCTYPE svg PUBLIC "-//W3C//DTD SVG 20010904//EN"
 "http://www.w3.org/TR/2001/REC-SVG-20010904/DTD/svg10.dtd">
<svg version="1.0" xmlns="http://www.w3.org/2000/svg"
 width="500.000000pt" height="500.000000pt" viewBox="0 0 500.000000 500.000000"
 preserveAspectRatio="xMidYMid meet">
<metadata>
Created by potrace 1.10, written by Peter Selinger 2001-2011
</metadata>
<g transform="translate(0.000000,500.000000) scale(0.100000,-0.100000)"
fill="#000000" stroke="none">
<path d="M2425 3451 c-38 -9 -102 -32 -142 -50 l-71 -33 -54 20 c-119 44 -179
51 -493 53 l-300 2 0 -69 0 -69 280 -1 c262 -1 387 -10 424 -33 9 -6 -1 -25
-36 -72 -125 -165 -179 -391 -140 -584 28 -135 78 -247 152 -335 27 -32 33
-45 23 -51 -42 -22 -141 -32 -335 -34 l-213 -1 0 213 0 213 -80 0 -80 0 0
-286 0 -286 303 4 c285 5 307 7 401 31 238 63 428 241 491 460 56 195 24 429
-80 586 -73 109 -68 105 -107 86 -18 -10 -48 -28 -66 -42 l-32 -24 33 -42 c87
-108 120 -204 121 -352 1 -166 -39 -276 -144 -388 l-54 -60 -43 48 c-52 57
-107 166 -127 255 -33 137 -12 299 55 431 40 80 153 194 229 231 140 69 313
77 447 21 73 -31 159 -85 205 -128 15 -14 29 -25 31 -25 3 0 26 25 52 55 46
55 47 56 29 76 -36 40 -149 113 -216 140 -144 59 -324 75 -463 40z m363 -40
c72 -21 174 -68 180 -83 2 -4 10 -8 18 -8 8 0 14 -4 14 -10 0 -5 4 -10 10 -10
17 0 59 -50 54 -65 -3 -7 -16 -21 -29 -29 -22 -14 -26 -13 -81 30 -111 86
-207 119 -349 119 -187 0 -262 -24 -377 -120 -82 -68 -152 -171 -186 -273 -23
-68 -26 -93 -26 -217 1 -94 5 -150 14 -170 7 -16 15 -39 17 -50 7 -36 63 -140
88 -164 14 -13 25 -27 25 -32 0 -11 54 -39 76 -39 24 0 127 112 150 162 10 24
21 45 24 48 8 6 22 40 25 60 2 8 8 39 14 69 15 74 14 154 -4 249 -16 83 -76
222 -96 222 -6 0 -8 7 -5 16 3 8 2 12 -4 9 -6 -3 -10 3 -10 14 0 11 9 25 19
31 34 18 60 12 76 -19 8 -16 20 -35 27 -43 22 -22 76 -158 86 -213 2 -16 6
-75 8 -131 4 -135 -13 -210 -79 -343 -25 -50 -173 -205 -206 -216 -11 -3 -21
-11 -21 -16 0 -5 -3 -8 -7 -7 -5 1 -31 -10 -59 -24 -106 -55 -145 -61 -471
-65 l-303 -5 -1 29 c-4 77 2 456 7 464 6 10 60 6 71 -5 4 -3 8 -84 9 -180 1
-95 5 -183 9 -195 11 -35 48 -42 219 -40 254 2 366 23 381 69 7 21 -4 41 -57
114 -21 28 -38 58 -38 67 0 9 -9 24 -20 34 -11 10 -18 21 -15 24 2 4 -8 40
-22 81 -22 64 -26 92 -26 190 1 123 25 244 63 305 10 16 19 33 19 38 1 15 31
63 60 95 42 47 50 90 21 112 -46 34 -119 43 -403 48 l-278 4 3 32 3 31 275 3
c252 2 282 1 350 -18 41 -12 103 -28 137 -37 l62 -16 63 31 c55 27 109 44 203
65 49 11 224 -2 293 -22z"/>
<path d="M2970 2315 c-127 -106 -254 -150 -410 -143 -52 3 -105 10 -117 17
-20 10 -30 6 -84 -34 -34 -25 -65 -45 -70 -45 -5 0 -9 -4 -9 -10 0 -5 37 -21
83 -36 72 -24 98 -28 217 -28 146 -1 224 16 335 71 55 28 170 110 200 143 19
21 19 21 -31 70 l-49 49 -65 -54z m102 -45 c-8 -20 -17 -29 -82 -76 -75 -55
-109 -72 -209 -101 -126 -38 -326 -37 -398 0 l-25 14 27 21 c19 15 40 21 71
20 24 0 44 -3 44 -7 0 -9 146 -6 200 3 65 12 181 57 174 67 -3 5 -2 9 3 8 12
-3 63 23 63 32 0 4 8 10 19 14 10 3 31 17 45 30 26 24 28 25 50 8 14 -11 21
-24 18 -33z"/>
</g>
</svg>
